<svg xmlns="http://www.w3.org/2000/svg" xmlns:xlink="http://www.w3.org/1999/xlink" width="1024" zoomAndPan="magnify" viewBox="0 0 768 767.999994" height="1024" preserveAspectRatio="xMidYMid meet" version="1.0">
  <defs>
    <clipPath id="5499afe1a4">
      <path d="M 215.664062 352.992188 L 398 352.992188 L 398 586 L 215.664062 586 Z M 215.664062 352.992188 " clip-rule="nonzero"></path>
    </clipPath>
    <clipPath id="6e3c31a3f1">
      <path d="M 307.773438 586.222656 L 399.886719 352.992188 L 215.664062 352.992188 L 307.773438 586.222656 " clip-rule="nonzero"></path>
    </clipPath>
    <clipPath id="c2a5ed2f60">
      <path d="M 262.246094 437.246094 L 303.734375 437.246094 L 303.734375 586.222656 L 262.246094 586.222656 Z M 262.246094 437.246094 " clip-rule="nonzero"></path>
    </clipPath>
    <clipPath id="341bd9ebc4">
      <path d="M 176.109375 45.578125 L 431.589844 45.578125 L 431.589844 354.578125 L 176.109375 354.578125 Z M 176.109375 45.578125 " clip-rule="nonzero"></path>
    </clipPath>
    <clipPath id="591359977e">
      <path d="M 249 100 L 350 100 L 350 115 L 249 115 Z M 249 100 " clip-rule="nonzero"></path>
    </clipPath>
    <clipPath id="a29af40afb">
      <path d="M 211.324219 355.304688 C 211.324219 355.304688 178.050781 328.160156 195.265625 301.105469 C 158.363281 259.308594 183.039062 206.449219 211.324219 192.921875 C 203.335938 158.503906 222.960938 123.03125 270.304688 111.78125 C 270.304688 111.78125 319.265625 88.945312 299.503906 49.40625 C 299.015625 48.402344 299.246094 47.183594 300.074219 46.429688 C 300.90625 45.671875 302.140625 45.550781 303.101562 46.132812 C 346.609375 72.28125 336.726562 111.78125 336.726562 111.78125 C 384.0625 123.03125 415.375 174.480469 395.699219 213.824219 C 423.992188 227.34375 451.125 277.75 414.222656 319.546875 C 431.4375 346.601562 395.699219 355.304688 395.699219 355.304688 " clip-rule="evenodd"></path>
    </clipPath>
    <clipPath id="c6b87c20df">
      <path d="M 191 301 L 425 301 L 425 330 L 191 330 Z M 191 301 " clip-rule="nonzero"></path>
    </clipPath>
    <clipPath id="952bfe5c80">
      <path d="M 211.324219 355.304688 C 211.324219 355.304688 178.050781 328.160156 195.265625 301.105469 C 158.363281 259.308594 183.039062 206.449219 211.324219 192.921875 C 203.335938 158.503906 222.960938 123.03125 270.304688 111.78125 C 270.304688 111.78125 319.265625 88.945312 299.503906 49.40625 C 299.015625 48.402344 299.246094 47.183594 300.074219 46.429688 C 300.90625 45.671875 302.140625 45.550781 303.101562 46.132812 C 346.609375 72.28125 336.726562 111.78125 336.726562 111.78125 C 384.0625 123.03125 415.375 174.480469 395.699219 213.824219 C 423.992188 227.34375 451.125 277.75 414.222656 319.546875 C 431.4375 346.601562 395.699219 355.304688 395.699219 355.304688 " clip-rule="evenodd"></path>
    </clipPath>
    <clipPath id="e6a025e8f2">
      <path d="M 192 192 L 415 192 L 415 229 L 192 229 Z M 192 192 " clip-rule="nonzero"></path>
    </clipPath>
    <clipPath id="3a8aa5200a">
      <path d="M 211.324219 355.304688 C 211.324219 355.304688 178.050781 328.160156 195.265625 301.105469 C 158.363281 259.308594 183.039062 206.449219 211.324219 192.921875 C 203.335938 158.503906 222.960938 123.03125 270.304688 111.78125 C 270.304688 111.78125 319.265625 88.945312 299.503906 49.40625 C 299.015625 48.402344 299.246094 47.183594 300.074219 46.429688 C 300.90625 45.671875 302.140625 45.550781 303.101562 46.132812 C 346.609375 72.28125 336.726562 111.78125 336.726562 111.78125 C 384.0625 123.03125 415.375 174.480469 395.699219 213.824219 C 423.992188 227.34375 451.125 277.75 414.222656 319.546875 C 431.4375 346.601562 395.699219 355.304688 395.699219 355.304688 " clip-rule="evenodd"></path>
    </clipPath>
  </defs>
  <path fill="#f44336" d="M 192.09375 -0.09375 C 86.0625 -0.09375 0.09375 85.875 0.09375 191.90625 L 0.09375 575.90625 C 0.09375 681.9375 86.0625 767.90625 192.09375 767.90625 L 576.09375 767.90625 C 682.125 767.90625 768.09375 681.9375 768.09375 575.90625 L 768.09375 191.90625 C 768.09375 85.875 682.125 -0.09375 576.09375 -0.09375 Z M 192.09375 -0.09375 " fill-opacity="1" fill-rule="nonzero"></path>
  <g clip-path="url(#5499afe1a4)" transform="matrix(1, 0, 0, 1, 80, 0)">
    <g clip-path="url(#6e3c31a3f1)">
      <path fill="#f9ad48" d="M 215.664062 352.992188 L 397.6875 352.992188 L 397.6875 585.582031 L 215.664062 585.582031 Z M 215.664062 352.992188 " fill-opacity="1" fill-rule="nonzero"></path>
    </g>
  </g>
  <g clip-path="url(#c2a5ed2f60)" transform="matrix(1, 0, 0, 1, 70, 0)">
    <path fill="#f9ad48" d="M 262.246094 437.246094 L 305.867188 437.246094 L 305.867188 587.503906 L 262.246094 587.503906 Z M 262.246094 437.246094 " fill-opacity="1" fill-rule="nonzero"></path>
  </g>
  <g clip-path="url(#341bd9ebc4)" transform="matrix(1, 0, 0, 1, 80, 0)">
    <path fill="#fdfdfe" d="M 211.324219 355.304688 C 211.324219 355.304688 178.050781 328.160156 195.265625 301.105469 C 158.363281 259.308594 183.039062 206.449219 211.324219 192.921875 C 203.335938 158.503906 222.957031 123.03125 270.304688 111.78125 C 270.304688 111.78125 319.265625 88.945312 299.503906 49.40625 C 299.015625 48.402344 299.246094 47.183594 300.074219 46.429688 C 300.90625 45.671875 302.140625 45.550781 303.101562 46.132812 C 346.609375 72.28125 336.726562 111.78125 336.726562 111.78125 C 384.0625 123.03125 415.375 174.480469 395.699219 213.824219 C 423.992188 227.34375 451.125 277.75 414.222656 319.546875 C 431.4375 346.601562 395.699219 355.304688 395.699219 355.304688 " fill-opacity="1" fill-rule="evenodd"></path>
  </g>
  <g clip-path="url(#591359977e)" transform="matrix(1, 0, 0, 1, 80, 0)">
    <g clip-path="url(#a29af40afb)">
      <path fill="#f0f1f4" d="M 336.726562 111.78125 C 336.726562 111.78125 307.355469 105.789062 270.304688 111.78125 C 233.246094 117.777344 257.167969 101.179688 257.167969 101.179688 C 257.167969 101.179688 316.273438 96.109375 349.488281 111.78125 C 346.71875 117.316406 336.726562 111.78125 336.726562 111.78125 Z M 336.726562 111.78125 " fill-opacity="1" fill-rule="evenodd"></path>
    </g>
  </g>
  <g clip-path="url(#c6b87c20df)" transform="matrix(1, 0, 0, 1, 80, 0)">
    <g clip-path="url(#952bfe5c80)">
      <path fill="#f0f1f4" d="M 191.316406 309.976562 C 191.316406 309.976562 227.554688 317.546875 284.667969 319.546875 C 353.101562 321.945312 424.058594 329.386719 424.058594 329.386719 L 414.222656 319.546875 C 414.222656 319.546875 368.296875 313.8125 284.667969 309.976562 C 201.105469 306.132812 195.265625 301.105469 195.265625 301.105469 Z M 191.316406 309.976562 " fill-opacity="1" fill-rule="evenodd"></path>
    </g>
  </g>
  <g clip-path="url(#e6a025e8f2)" transform="matrix(1, 0, 0, 1, 80, 0)">
    <g clip-path="url(#3a8aa5200a)">
      <path fill="#f0f1f4" d="M 211.324219 192.921875 C 211.324219 192.921875 344.414062 196.839844 395.699219 213.824219 C 408.234375 210.515625 414.277344 228.457031 414.277344 228.457031 C 337.539062 209.058594 271.070312 204.855469 197 203.488281 L 192.359375 192.921875 Z M 211.324219 192.921875 " fill-opacity="1" fill-rule="evenodd"></path>
    </g>
  </g>
  <g fill="#ffffff" fill-opacity="1" transform="matrix(1, 0, 0, 1, 80, 0)">
    <g transform="translate(-5.061192, 679.12656)">
      <g>
        <path d="M 439.417969 -274.324219 L 473.835938 -274.324219 C 495.28125 -274.324219 512.238281 -289.789062 512.238281 -308.742188 C 512.238281 -323.703125 502.761719 -332.183594 485.304688 -332.683594 L 435.429688 -332.683594 L 425.953125 -332.183594 C 405.503906 -331.683594 400.015625 -329.191406 391.535156 -314.726562 L 385.550781 -304.25 L 267.34375 -103.246094 L 267.34375 -199.507812 C 267.34375 -245.894531 264.847656 -269.835938 258.363281 -288.789062 C 248.886719 -315.722656 214.972656 -336.171875 179.058594 -336.171875 C 106.238281 -336.171875 43.394531 -273.828125 43.394531 -201.503906 C 43.394531 -150.628906 82.796875 -110.726562 132.175781 -110.726562 C 168.085938 -110.726562 193.523438 -126.6875 193.523438 -149.632812 C 193.523438 -162.101562 181.054688 -173.574219 167.585938 -173.074219 L 146.640625 -172.574219 C 125.691406 -172.078125 109.230469 -188.039062 109.230469 -207.988281 C 109.230469 -242.402344 139.65625 -275.324219 171.578125 -275.324219 C 184.046875 -275.324219 195.019531 -266.84375 199.507812 -253.375 C 203 -243.898438 203.5 -236.917969 204.496094 -199.507812 L 208.488281 -35.414062 C 208.984375 -19.453125 210.480469 -12.46875 214.972656 -4.988281 C 220.457031 3.988281 232.925781 10.472656 245.394531 10.472656 C 263.851562 10.472656 275.324219 1.996094 289.289062 -21.945312 Z M 439.417969 -274.324219 "></path>
      </g>
    </g>
  </g>
</svg>